<svg width="22" height="22" viewBox="0 0 22 22" fill="none" xmlns="http://www.w3.org/2000/svg">
<g id="Frame">
<path id="Vector" fill-rule="evenodd" clip-rule="evenodd" d="M14.3357 4.6365C16.4491 5.84375 17.8763 8.16063 17.8763 10.8144C17.8763 14.7084 14.8005 17.8784 11.0013 17.8784C7.20222 17.8784 4.12634 14.7084 4.12634 10.8144C4.12634 7.67525 6.12422 5.00775 8.89072 4.08994C9.25097 3.97031 9.44622 3.58119 9.32728 3.22094C9.20766 2.86069 8.81853 2.66544 8.45828 2.78507C5.15141 3.88163 2.75134 7.062 2.75134 10.8144C2.75134 15.477 6.45284 19.2534 11.0013 19.2534C15.5498 19.2534 19.2513 15.477 19.2513 10.8144C19.2513 7.76806 17.6701 5.0985 15.3051 3.61488L16.1377 3.39213C16.5041 3.29382 16.722 2.91638 16.6237 2.54994C16.5254 2.1835 16.1487 1.96556 15.7822 2.06388L13.1257 2.77544C12.7586 2.87375 12.5413 3.25119 12.6397 3.61763L13.3512 6.27413C13.4495 6.64057 13.827 6.8585 14.1934 6.76019C14.5598 6.66188 14.7778 6.28444 14.6795 5.918L14.3357 4.6365Z" fill="white"/>
</g>
</svg>
