<svg width="22" height="22" viewBox="0 0 22 22" fill="none" xmlns="http://www.w3.org/2000/svg">
<g id="Layer_1">
<path id="Vector" d="M11 17.6043L6.53335 13.1377L7.45503 12.216L10.3481 15.1087V1.46094H11.6518V15.1087L14.5449 12.216L15.4687 13.1377L11 17.6043ZM19.1606 15.082V19.0876C19.1592 19.1267 19.1431 19.1639 19.1154 19.1916C19.0877 19.2194 19.0506 19.2356 19.0115 19.2371H2.97124C2.934 19.2346 2.89926 19.2174 2.87456 19.1894C2.84986 19.1615 2.8372 19.1248 2.83933 19.0876V15.082H1.53565V19.0876C1.53428 19.4702 1.68458 19.8378 1.95365 20.1098C2.22271 20.3819 2.58862 20.5362 2.97124 20.5391H19.0115C19.3967 20.5386 19.766 20.3853 20.0384 20.1129C20.3108 19.8405 20.4639 19.4711 20.4642 19.0859V15.082H19.1606Z" fill="white"/>
</g>
</svg>
