<svg width="17" height="15" viewBox="0 0 17 15" fill="none" xmlns="http://www.w3.org/2000/svg">
<g id="Checkmark / Receive" opacity="0.8">
<path id="Union" fill-rule="evenodd" clip-rule="evenodd" d="M11.5114 3.54363C11.7721 3.22176 11.7225 2.74948 11.4006 2.48876C11.0788 2.22805 10.6065 2.27762 10.3458 2.59949L4.38815 9.95447L1.95715 7.53948C1.66329 7.24755 1.18842 7.24912 0.896494 7.54298C0.60457 7.83684 0.60614 8.31171 0.899999 8.60364L3.9199 11.6036C4.07037 11.7531 4.27711 11.8319 4.48891 11.8205C4.70071 11.809 4.89776 11.7084 5.03127 11.5436L11.5114 3.54363ZM16.4937 3.56468C16.766 3.25256 16.7338 2.77879 16.4217 2.50647C16.1095 2.23414 15.6358 2.2664 15.3634 2.57851L8.90595 9.97954L8.45365 9.53607C8.15789 9.24607 7.68304 9.25075 7.39305 9.54651C7.10305 9.84228 7.10773 10.3171 7.40349 10.6071L8.42339 11.6071C8.57082 11.7517 8.77133 11.8291 8.97765 11.821C9.18397 11.813 9.37785 11.7203 9.5136 11.5647L16.4937 3.56468Z" fill="#E9E9EB"/>
</g>
</svg>
