<svg width="23" height="22" viewBox="0 0 23 22" fill="none" xmlns="http://www.w3.org/2000/svg">
<g id="Frame" clip-path="url(#clip0_13_447)">
<g id="Layer 2">
<path id="Vector" d="M11.5 19.9375C11.4095 19.938 11.3198 19.9207 11.2361 19.8865C11.1523 19.8523 11.0761 19.8018 11.0119 19.7381L4.82438 13.5506C4.69492 13.4212 4.62219 13.2456 4.62219 13.0625C4.62219 12.8794 4.69492 12.7038 4.82438 12.5744C4.95384 12.4449 5.12942 12.3722 5.31251 12.3722C5.49559 12.3722 5.67117 12.4449 5.80063 12.5744L11.5 18.2806L17.1994 12.5744C17.2635 12.5103 17.3396 12.4594 17.4233 12.4247C17.5071 12.39 17.5969 12.3722 17.6875 12.3722C17.7782 12.3722 17.8679 12.39 17.9517 12.4247C18.0354 12.4594 18.1115 12.5103 18.1756 12.5744C18.2397 12.6385 18.2906 12.7146 18.3253 12.7983C18.36 12.8821 18.3778 12.9719 18.3778 13.0625C18.3778 13.1532 18.36 13.2429 18.3253 13.3267C18.2906 13.4104 18.2397 13.4865 18.1756 13.5506L11.9881 19.7381C11.9239 19.8018 11.8477 19.8523 11.7639 19.8865C11.6802 19.9207 11.5905 19.938 11.5 19.9375Z" fill="white"/>
<path id="Vector_2" d="M11.5 19.9375C11.3177 19.9375 11.1428 19.8651 11.0139 19.7361C10.8849 19.6072 10.8125 19.4323 10.8125 19.25V2.75C10.8125 2.56766 10.8849 2.3928 11.0139 2.26386C11.1428 2.13493 11.3177 2.0625 11.5 2.0625C11.6823 2.0625 11.8572 2.13493 11.9861 2.26386C12.1151 2.3928 12.1875 2.56766 12.1875 2.75V19.25C12.1875 19.4323 12.1151 19.6072 11.9861 19.7361C11.8572 19.8651 11.6823 19.9375 11.5 19.9375Z" fill="white"/>
</g>
</g>
<defs>
<clipPath id="clip0_13_447">
<rect width="22" height="22" fill="white" transform="translate(0.5)"/>
</clipPath>
</defs>
</svg>
