<svg width="14" height="19" viewBox="0 0 14 19" fill="none" xmlns="http://www.w3.org/2000/svg">
<g id="Layer 2">
<path id="Vector" d="M6.8778 0.562494C6.96828 0.561971 7.05797 0.579313 7.14174 0.613526C7.2255 0.647739 7.30169 0.698151 7.36593 0.76187L13.5534 6.94937C13.6829 7.07883 13.7556 7.25441 13.7556 7.43749C13.7556 7.62058 13.6829 7.79616 13.5534 7.92562C13.424 8.05508 13.2484 8.12781 13.0653 8.12781C12.8822 8.12781 12.7066 8.05508 12.5772 7.92562L6.8778 2.21937L1.17843 7.92562C1.11433 7.98972 1.03823 8.04057 0.954474 8.07526C0.870721 8.10995 0.780956 8.12781 0.690302 8.12781C0.599649 8.12781 0.509884 8.10995 0.426131 8.07526C0.342379 8.04057 0.26628 7.98972 0.202178 7.92562C0.138077 7.86152 0.0872278 7.78542 0.0525363 7.70166C0.0178448 7.61791 -1.01996e-05 7.52815 -1.01916e-05 7.43749C-1.01837e-05 7.34684 0.0178449 7.25708 0.0525363 7.17332C0.0872278 7.08957 0.138077 7.01347 0.202178 6.94937L6.38968 0.76187C6.45392 0.698151 6.5301 0.647739 6.61387 0.613526C6.69763 0.579313 6.78732 0.561971 6.8778 0.562494Z" fill="white"/>
<path id="Vector_2" d="M6.87781 0.5625C7.06015 0.5625 7.23501 0.634932 7.36394 0.763864C7.49288 0.892795 7.56531 1.06766 7.56531 1.25L7.56531 17.75C7.56531 17.9323 7.49287 18.1072 7.36394 18.2361C7.23501 18.3651 7.06014 18.4375 6.87781 18.4375C6.69547 18.4375 6.5206 18.3651 6.39167 18.2361C6.26274 18.1072 6.19031 17.9323 6.19031 17.75L6.19031 1.25C6.19031 1.06766 6.26274 0.892795 6.39167 0.763863C6.5206 0.634932 6.69547 0.5625 6.87781 0.5625Z" fill="white"/>
</g>
</svg>
