<svg width="22" height="22" viewBox="0 0 22 22" fill="none" xmlns="http://www.w3.org/2000/svg">
<g id="Layer_1">
<path id="Vector" fill-rule="evenodd" clip-rule="evenodd" d="M19.7084 18.7917H2.29171C1.27925 18.7917 0.458374 17.9708 0.458374 16.9583V5.04168C0.458374 4.02922 1.27925 3.20834 2.29171 3.20834H19.7084C20.7208 3.20834 21.5417 4.02922 21.5417 5.04168V16.9583C21.5417 17.9708 20.7208 18.7917 19.7084 18.7917ZM20.625 5.04168C20.625 4.53568 20.2144 4.12501 19.7084 4.12501H2.29171C1.78571 4.12501 1.37504 4.53568 1.37504 5.04168V16.9583C1.37504 17.4643 1.78571 17.875 2.29171 17.875H19.7084C20.2144 17.875 20.625 17.4643 20.625 16.9583V5.04168ZM18.9448 15.9111L16.0417 13.008L14.383 14.6667L15.9111 16.1948C16.0857 16.3694 16.0857 16.6526 15.9111 16.8277C15.736 17.0023 15.4527 17.0023 15.2781 16.8277L8.70837 10.258L3.05529 15.9111C2.88067 16.0857 2.59742 16.0857 2.42233 15.9111C2.24771 15.736 2.24771 15.4527 2.42233 15.2781L8.33712 9.3633C8.35179 9.3413 8.36142 9.31701 8.38067 9.2973C8.47096 9.20701 8.59012 9.16576 8.70837 9.16851C8.82662 9.16576 8.94579 9.20701 9.03608 9.2973C9.05533 9.31701 9.0645 9.3413 9.07962 9.3633L13.75 14.0337L15.6705 12.1133C15.6856 12.0918 15.6947 12.067 15.714 12.0473C15.8043 11.9575 15.9235 11.9158 16.0417 11.9185C16.16 11.9158 16.2791 11.9575 16.3694 12.0473C16.3887 12.067 16.3978 12.0918 16.413 12.1133L19.5777 15.2781C19.7524 15.4527 19.7524 15.736 19.5777 15.9111C19.4027 16.0857 19.1194 16.0857 18.9448 15.9111ZM13.2917 8.70834C12.2792 8.70834 11.4584 7.88747 11.4584 6.87501C11.4584 5.86255 12.2792 5.04168 13.2917 5.04168C14.3042 5.04168 15.125 5.86255 15.125 6.87501C15.125 7.88747 14.3042 8.70834 13.2917 8.70834ZM13.2917 5.95834C12.7857 5.95834 12.375 6.36901 12.375 6.87501C12.375 7.38101 12.7857 7.79168 13.2917 7.79168C13.7977 7.79168 14.2084 7.38101 14.2084 6.87501C14.2084 6.36901 13.7977 5.95834 13.2917 5.95834Z" fill="#8482FF"/>
</g>
</svg>
