<svg width="50" height="50" viewBox="0 0 50 50" fill="none" xmlns="http://www.w3.org/2000/svg">
<path d="M24.9215 0C11.1574 0 0 11.1925 0 25C0 38.8075 11.1574 50 24.9215 50C38.6857 50 49.8431 38.8075 49.8431 25C49.8431 11.1925 38.6857 0 24.9215 0ZM32.8465 37.88C32.7535 38.1136 32.6117 38.3244 32.4308 38.4985C32.2498 38.6725 32.0338 38.8057 31.7972 38.8891C31.5607 38.9724 31.3091 39.004 31.0594 38.9818C30.8096 38.9595 30.5675 38.8839 30.3494 38.76L23.5832 33.485L19.2418 37.505C19.1411 37.5796 19.0232 37.6277 18.8991 37.6447C18.775 37.6618 18.6486 37.6472 18.5316 37.6025L19.364 30.13L19.3889 30.1525L19.4063 30.005C19.4063 30.005 31.5805 18.885 32.0764 18.4125C32.5798 17.94 32.4129 17.8375 32.4129 17.8375C32.4428 17.2625 31.5132 17.8375 31.5132 17.8375L15.3815 28.2475L8.66513 25.9525C8.66513 25.9525 7.63338 25.5825 7.53619 24.765C7.43401 23.955 8.69753 23.515 8.69753 23.515L35.4059 12.87C35.4059 12.87 37.6015 11.89 37.6015 13.515L32.8465 37.88Z" fill="#6563FF"/>
</svg>
