<svg width="168" height="50" viewBox="0 0 168 50" fill="none" xmlns="http://www.w3.org/2000/svg">
<g id="Logo">
<path d="M32.8465 37.88C32.7535 38.1136 32.6117 38.3244 32.4308 38.4985C32.2498 38.6725 32.0338 38.8057 31.7972 38.8891C31.5607 38.9724 31.3091 39.004 31.0594 38.9818C30.8096 38.9595 30.5675 38.8839 30.3494 38.76L23.5832 33.485L19.2418 37.505C19.1411 37.5796 19.0232 37.6277 18.8991 37.6447C18.775 37.6617 18.6486 37.6472 18.5316 37.6025L19.364 30.13L19.3889 30.1525L19.4063 30.005C19.4063 30.005 31.5805 18.885 32.0764 18.4125C32.5798 17.94 32.4129 17.8375 32.4129 17.8375C32.4428 17.2625 31.5132 17.8375 31.5132 17.8375L15.3815 28.2475L8.66513 25.9525C8.66513 25.9525 7.63338 25.5825 7.53619 24.765C7.43401 23.955 8.69753 23.515 8.69753 23.515L35.4059 12.87C35.4059 12.87 37.6015 11.89 37.6015 13.515L32.8465 37.88Z" fill="#B2B1FF"/>
<path d="M24.9215 0C11.1574 0 0 11.1925 0 25C0 38.8075 11.1574 50 24.9215 50C38.6857 50 49.8431 38.8075 49.8431 25C49.8431 11.1925 38.6857 0 24.9215 0ZM32.8465 37.88C32.7535 38.1136 32.6117 38.3244 32.4308 38.4985C32.2498 38.6725 32.0338 38.8057 31.7972 38.8891C31.5607 38.9724 31.3091 39.004 31.0594 38.9818C30.8096 38.9595 30.5675 38.8839 30.3494 38.76L23.5832 33.485L19.2418 37.505C19.1411 37.5796 19.0232 37.6277 18.8991 37.6447C18.775 37.6617 18.6486 37.6472 18.5316 37.6025L19.364 30.13L19.3889 30.1525L19.4063 30.005C19.4063 30.005 31.5805 18.885 32.0764 18.4125C32.5798 17.94 32.4129 17.8375 32.4129 17.8375C32.4428 17.2625 31.5132 17.8375 31.5132 17.8375L15.3815 28.2475L8.66513 25.9525C8.66513 25.9525 7.63338 25.5825 7.53619 24.765C7.43401 23.955 8.69753 23.515 8.69753 23.515L35.4059 12.87C35.4059 12.87 37.6015 11.89 37.6015 13.515L32.8465 37.88Z" fill="#6563FF"/>
<path d="M70.8569 35C69.3018 35 68.0557 34.62 67.1187 33.86C66.1816 33.1 65.7131 31.75 65.7131 29.81V23.33H63.1711V20.12H65.7131L66.1617 16.13H69.5411V20.12H73.5485V23.33H69.5411V29.84C69.5411 30.56 69.6906 31.06 69.9897 31.34C70.3087 31.6 70.847 31.73 71.6046 31.73H73.4587V35H70.8569Z" fill="#6563FF"/>
<path d="M83.6627 35.36C82.1674 35.36 80.8416 35.04 79.6852 34.4C78.5289 33.76 77.6217 32.86 76.9638 31.7C76.3059 30.54 75.9769 29.2 75.9769 27.68C75.9769 26.14 76.2959 24.77 76.9339 23.57C77.5918 22.37 78.489 21.44 79.6254 20.78C80.7818 20.1 82.1375 19.76 83.6926 19.76C85.148 19.76 86.434 20.08 87.5505 20.72C88.6669 21.36 89.5342 22.24 90.1523 23.36C90.7903 24.46 91.1093 25.69 91.1093 27.05C91.1093 27.27 91.0993 27.5 91.0794 27.74C91.0794 27.98 91.0694 28.23 91.0495 28.49H79.7749C79.8547 29.65 80.2534 30.56 80.9712 31.22C81.7089 31.88 82.5961 32.21 83.6328 32.21C84.4104 32.21 85.0583 32.04 85.5767 31.7C86.115 31.34 86.5137 30.88 86.7729 30.32H90.6607C90.3816 31.26 89.913 32.12 89.2551 32.9C88.6171 33.66 87.8196 34.26 86.8626 34.7C85.9256 35.14 84.8589 35.36 83.6627 35.36ZM83.6926 22.88C82.7556 22.88 81.9282 23.15 81.2104 23.69C80.4927 24.21 80.0341 25.01 79.8348 26.09H87.2215C87.1617 25.11 86.8028 24.33 86.1449 23.75C85.487 23.17 84.6695 22.88 83.6926 22.88Z" fill="#6563FF"/>
<path d="M94.3288 35V13.4H98.1568V35H94.3288Z" fill="#6563FF"/>
<path d="M109.275 35.36C107.78 35.36 106.454 35.04 105.298 34.4C104.142 33.76 103.234 32.86 102.577 31.7C101.919 30.54 101.59 29.2 101.59 27.68C101.59 26.14 101.909 24.77 102.547 23.57C103.205 22.37 104.102 21.44 105.238 20.78C106.395 20.1 107.75 19.76 109.305 19.76C110.761 19.76 112.047 20.08 113.163 20.72C114.28 21.36 115.147 22.24 115.765 23.36C116.403 24.46 116.722 25.69 116.722 27.05C116.722 27.27 116.712 27.5 116.692 27.74C116.692 27.98 116.682 28.23 116.662 28.49H105.388C105.467 29.65 105.866 30.56 106.584 31.22C107.322 31.88 108.209 32.21 109.246 32.21C110.023 32.21 110.671 32.04 111.189 31.7C111.728 31.34 112.126 30.88 112.386 30.32H116.273C115.994 31.26 115.526 32.12 114.868 32.9C114.23 33.66 113.432 34.26 112.475 34.7C111.538 35.14 110.472 35.36 109.275 35.36ZM109.305 22.88C108.368 22.88 107.541 23.15 106.823 23.69C106.105 24.21 105.647 25.01 105.447 26.09H112.834C112.774 25.11 112.416 24.33 111.758 23.75C111.1 23.17 110.282 22.88 109.305 22.88Z" fill="#6563FF"/>
<path d="M126.072 35.36C124.756 35.36 123.6 35.15 122.603 34.73C121.606 34.29 120.809 33.69 120.211 32.93C119.613 32.17 119.254 31.29 119.134 30.29H122.992C123.112 30.87 123.431 31.37 123.949 31.79C124.487 32.19 125.175 32.39 126.012 32.39C126.85 32.39 127.458 32.22 127.837 31.88C128.235 31.54 128.435 31.15 128.435 30.71C128.435 30.07 128.156 29.64 127.597 29.42C127.039 29.18 126.262 28.95 125.265 28.73C124.627 28.59 123.979 28.42 123.321 28.22C122.663 28.02 122.055 27.77 121.497 27.47C120.958 27.15 120.52 26.75 120.181 26.27C119.842 25.77 119.672 25.16 119.672 24.44C119.672 23.12 120.191 22.01 121.227 21.11C122.284 20.21 123.76 19.76 125.654 19.76C127.408 19.76 128.804 20.17 129.84 20.99C130.897 21.81 131.525 22.94 131.724 24.38H128.106C127.887 23.28 127.059 22.73 125.624 22.73C124.906 22.73 124.348 22.87 123.949 23.15C123.57 23.43 123.381 23.78 123.381 24.2C123.381 24.64 123.67 24.99 124.248 25.25C124.826 25.51 125.594 25.75 126.551 25.97C127.587 26.21 128.534 26.48 129.392 26.78C130.269 27.06 130.967 27.49 131.485 28.07C132.004 28.63 132.263 29.44 132.263 30.5C132.283 31.42 132.043 32.25 131.545 32.99C131.047 33.73 130.329 34.31 129.392 34.73C128.455 35.15 127.348 35.36 126.072 35.36Z" fill="#6563FF"/>
<path d="M137.717 17.81C137.019 17.81 136.441 17.6 135.983 17.18C135.544 16.76 135.325 16.23 135.325 15.59C135.325 14.95 135.544 14.43 135.983 14.03C136.441 13.61 137.019 13.4 137.717 13.4C138.415 13.4 138.983 13.61 139.422 14.03C139.88 14.43 140.11 14.95 140.11 15.59C140.11 16.23 139.88 16.76 139.422 17.18C138.983 17.6 138.415 17.81 137.717 17.81ZM135.803 35V20.12H139.631V35H135.803Z" fill="#6563FF"/>
<path d="M143.627 35V20.12H147.006L147.335 22.13C147.814 21.41 148.442 20.84 149.219 20.42C150.017 19.98 150.934 19.76 151.97 19.76C154.263 19.76 155.888 20.65 156.845 22.43C157.383 21.61 158.101 20.96 158.998 20.48C159.915 20 160.912 19.76 161.989 19.76C163.923 19.76 165.408 20.34 166.445 21.5C167.482 22.66 168 24.36 168 26.6V35H164.172V26.96C164.172 25.68 163.923 24.7 163.424 24.02C162.946 23.34 162.198 23 161.181 23C160.145 23 159.307 23.38 158.669 24.14C158.051 24.9 157.742 25.96 157.742 27.32V35H153.914V26.96C153.914 25.68 153.665 24.7 153.167 24.02C152.668 23.34 151.901 23 150.864 23C149.847 23 149.02 23.38 148.382 24.14C147.764 24.9 147.455 25.96 147.455 27.32V35H143.627Z" fill="#6563FF"/>
</g>
</svg>
