<svg width="36" height="36" viewBox="0 0 36 36" fill="none" xmlns="http://www.w3.org/2000/svg">
<g id="Layer_1" clip-path="url(#clip0_4_54)">
<g id="Group">
<path id="Vector" d="M18.0492 34.5814C27.1619 34.5814 34.5492 27.1941 34.5492 18.0814C34.5492 8.96872 27.1619 1.58142 18.0492 1.58142C8.9365 1.58142 1.54919 8.96872 1.54919 18.0814C1.54919 27.1941 8.9365 34.5814 18.0492 34.5814Z" fill="#EF548A"/>
<path id="Vector_2" d="M18 0C8.07495 0 0 8.07495 0 18C0 27.925 8.07495 36 18 36C27.925 36 36 27.925 36 18C36 8.07495 27.925 0 18 0ZM29.7914 8.75922C31.7676 11.2752 32.9617 14.4296 32.993 17.8625C29.2794 17.009 25.8622 16.8008 22.6946 17.2192C22.2942 16.286 21.8747 15.3583 21.4203 14.4394C24.537 13.1076 27.3181 11.2746 29.7914 8.75922ZM27.721 6.59766C25.5495 8.84628 23.0823 10.556 20.0288 11.8137C18.4527 8.99286 16.6081 6.21597 14.4694 3.43707C15.6038 3.16187 16.7821 3 18 3C21.7084 3 25.1001 4.35983 27.721 6.59766ZM11.499 4.50275C13.7015 7.28705 15.5793 10.033 17.1708 12.8091C13.4731 13.894 8.99561 14.4976 3.36768 14.7385C4.37485 10.2187 7.42657 6.4725 11.499 4.50275ZM3.01236 17.7553C8.92062 17.5315 14.0967 16.9313 18.6184 15.4937C19.0048 16.2625 19.3733 17.0352 19.7184 17.8139C14.6586 19.2141 10.2881 22.4364 6.44769 27.556C4.29575 24.959 3 21.6284 3 18C3 17.9174 3.01099 17.8376 3.01236 17.7553ZM8.61008 29.6798C12.1764 24.8145 16.1692 21.8202 20.8553 20.6142C22.1874 24.1664 23.1351 27.8672 23.7468 31.8511C21.9755 32.5887 20.0354 33 18 33C14.4467 33 11.1829 31.7523 8.61008 29.6798ZM26.5311 30.3224C25.9201 26.762 25.0362 23.3788 23.8455 20.1125C26.5667 19.852 29.5065 20.1063 32.7159 20.8813C31.9543 24.778 29.6804 28.1353 26.5311 30.3224Z" fill="#C72263"/>
<path id="Vector_3" opacity="0.2" d="M17.9999 0.375C25.9928 0.375 32.766 5.53839 35.2058 12.7061C32.9448 5.34897 26.0981 0 17.9999 0C9.90173 0 3.05515 5.34897 0.794067 12.706C3.23386 5.53839 10.007 0.375 17.9999 0.375Z" fill="white"/>
<path id="Vector_4" opacity="0.1" d="M18 35.625C10.8823 35.625 4.74379 31.5771 1.76193 25.629C1.39528 24.8976 1.07635 24.1375 0.809204 23.3527C1.05043 24.1376 1.34368 24.899 1.68494 25.633C4.54232 31.7785 10.7657 36 18 36C25.0137 36 31.0821 32.0162 34.0505 26.1697C34.5095 25.2657 34.8943 24.3172 35.1971 23.332C35.0042 23.8988 34.7843 24.4528 34.5388 24.9924C31.6799 31.2781 25.3609 35.625 18 35.625Z" fill="#010101"/>
<path id="Vector_5" d="M18 0C8.07495 0 0 8.07495 0 18C0 27.925 8.07495 36 18 36C27.925 36 36 27.925 36 18C36 8.07495 27.925 0 18 0Z" fill="url(#paint0_linear_4_54)"/>
</g>
</g>
<defs>
<linearGradient id="paint0_linear_4_54" x1="1.68738" y1="10.3933" x2="34.3126" y2="25.6067" gradientUnits="userSpaceOnUse">
<stop stop-color="white" stop-opacity="0.2"/>
<stop offset="1" stop-color="white" stop-opacity="0"/>
</linearGradient>
<clipPath id="clip0_4_54">
<rect width="36" height="36" fill="white"/>
</clipPath>
</defs>
</svg>
