<svg width="36" height="36" viewBox="0 0 36 36" fill="none" xmlns="http://www.w3.org/2000/svg">
<g id="Layer_1" clip-path="url(#clip0_4_48)">
<g id="Group">
<path id="Vector" fill-rule="evenodd" clip-rule="evenodd" d="M20.8219 24.9029C24.3294 24.4886 28.06 23.2133 28.06 17.155C28.06 15.433 27.4536 14.0297 26.466 12.9454C26.6253 12.5313 27.135 10.9687 26.2737 8.80073C26.2737 8.80073 24.9983 8.38603 22.0016 10.3946C20.7262 10.0443 19.3234 9.82069 18.0162 9.82069C16.6765 9.82069 15.2732 10.0443 14.0297 10.3946C11.0005 8.38603 9.72513 8.80073 9.72513 8.80073C8.86444 10.9687 9.37477 12.5313 9.53402 12.9454C8.54536 14.0297 7.93955 15.433 7.93955 17.155C7.93955 23.2133 11.6701 24.4886 15.1777 24.9029C14.7316 25.2862 14.317 26.0189 14.1576 27.0394C13.2645 27.4218 10.9368 28.1555 9.53402 25.7322C9.53402 25.7322 8.70469 24.2338 7.14255 24.1383C7.14255 24.1383 5.57993 24.1064 7.01508 25.094C7.01508 25.094 8.06695 25.5729 8.76888 27.3899C8.76888 27.3899 9.72513 30.4196 14.1252 29.4627V32.1727C14.1252 32.588 13.8067 33.0659 13.0097 32.9385C6.75977 30.8656 2.26406 24.9346 2.26406 17.9838C2.26406 9.27865 9.3105 2.23228 18.0162 2.23228C26.689 2.23228 33.7678 9.27872 33.7359 17.9838C33.7359 24.9346 29.2397 30.8337 22.9902 32.9385C22.1927 33.0978 21.8741 32.6199 21.8741 32.1727V27.8051C21.8742 26.3374 21.3953 25.3818 20.8219 24.9029ZM36 18.0162C36 8.06695 27.9326 0 18.0162 0C8.06695 0 0 8.06695 0 18.0162C0 27.9326 8.06695 36 18.0162 36C27.9326 36 36 27.9326 36 18.0162Z" fill="#0D2636"/>
</g>
</g>
<defs>
<clipPath id="clip0_4_48">
<rect width="36" height="36" fill="white"/>
</clipPath>
</defs>
</svg>
